<svg height="90" viewBox="0 0 90 90" width="90" xmlns="http://www.w3.org/2000/svg"><path d="m59.168 14.2a45 45 0 1 0 45.032 44.968 45.051 45.051 0 0 0 -45.032-44.968z" fill="#3cff4b" transform="translate(-14.2 -14.2)"/><g fill="#282828"><path d="m79.851 86.243a4.419 4.419 0 0 1 -1.778-6.478 4.372 4.372 0 0 1 6.478-1.715 4.419 4.419 0 0 1 1.778 6.478 4.372 4.372 0 0 1 -6.478 1.715zm3.239-5.653c-1.651-.953-2.668-.762-3.239.191s-.191 1.969 1.461 2.919c1.588.953 2.731.826 3.3-.191.574-.95.129-1.966-1.522-2.919z" transform="translate(-37.232 -37.21)"/><path d="m83.6 69.385 1.4-2.414 1.524.889a3.163 3.163 0 0 1 -.191-3.62c.953-1.715 2.541-1.969 4.7-.7l4.891 2.795-1.461 2.541-4.51-2.6c-1.08-.635-1.842-.572-2.287.254-.508.889-.127 1.778 1.08 2.477l4.254 2.474-1.461 2.541z" transform="translate(-39.521 -31.911)"/><path d="m101.281 50.489-3.176 5.462a1.976 1.976 0 0 0 2.795-.826 2.119 2.119 0 0 0 -.127-2.35l1.905-1.4a4.428 4.428 0 0 1 0 4.827c-1.524 2.6-3.938 3.3-6.478 1.842-2.6-1.461-3.3-4-1.905-6.415 1.4-2.477 3.684-3.049 6.161-1.588zm-2.858 1.588c-1.143-.635-2.032-.445-2.541.445-.572.953-.191 1.905.889 2.6l1.651-3.049z" transform="translate(-43.165 -26.988)"/><path d="m105.3 42.507-1.08 1.842 1.016 1.207-.381.635-3.555-4.319.318-.572 5.526.889-.381.635zm-.635-.127-2.095-.38c-.127 0-.254-.064-.381-.064a1.115 1.115 0 0 1 .254.318l1.4 1.651z" transform="translate(-45.978 -24.087)"/><path d="m104.2 34.882.508-.889 4.192.826c.254.064.318.064.508.127a2.089 2.089 0 0 1 -.381-.381l-2.795-3.176.508-.889 4.51 2.6-.318.572-3.493-2.032a2.688 2.688 0 0 1 -.445-.318l.445.445 2.731 3.176-.318.572-4.128-.826a1.206 1.206 0 0 1 -.572-.191 3.745 3.745 0 0 1 .508.254l3.493 2.032-.318.572z" transform="translate(-47.037 -20.147)"/></g></svg>