<svg height="16.187" viewBox="0 0 130 16.187" width="130" xmlns="http://www.w3.org/2000/svg"><g fill="#f8f6f5"><path d="m133.914 37.129v1.559a2.71 2.71 0 0 1 2.66-1.788 2.4 2.4 0 0 1 2.476 1.788 2.956 2.956 0 0 1 2.75-1.788c1.7 0 2.66 1.192 2.66 3.21v5.69h-2.751v-5.09c0-1.146-.367-1.7-1.146-1.7-.825 0-1.284.642-1.284 1.788v4.952h-2.751v-5.044c0-1.146-.367-1.651-1.146-1.651-.825 0-1.284.642-1.284 1.788v4.957h-2.8v-8.671z" transform="translate(-84.344 -33.232)"/><path d="m163.3 43.411a2.134 2.134 0 0 1 .871-1.88 6 6 0 0 1 2.705-.871l2.109-.275v-.275c0-1.009-.413-1.422-1.284-1.422a1.23 1.23 0 0 0 -1.376 1.284h-2.751c.138-1.926 1.7-3.072 4.173-3.072 2.8 0 4.035 1.1 4.035 3.577v2.889a10.863 10.863 0 0 0 .229 2.43h-2.705a6.353 6.353 0 0 1 -.138-1.376 3.025 3.025 0 0 1 -2.889 1.559c-1.787 0-2.979-1.008-2.979-2.568zm5.778-.917v-.688l-1.513.229c-1.009.183-1.513.55-1.513 1.192a1.07 1.07 0 0 0 1.192 1.009 1.711 1.711 0 0 0 1.834-1.742z" transform="translate(-101.67 -33.232)"/><path d="m192 36.9h.183v2.66h-.5a2.671 2.671 0 0 0 -1.7.5 2.842 2.842 0 0 0 -.688 2.2v3.54h-2.8v-8.671h2.614v2.247c.463-1.559 1.38-2.476 2.891-2.476z" transform="translate(-114.232 -33.232)"/><path d="m205.96 37.979-.96 1.009v2.476h-2.8v-12.564h2.8v7.291l2.8-3.393h3.2l-3.164 3.439 3.256 5.228h-3.118z" transform="translate(-122.732 -28.9)"/><path d="m230.567 42.136h-6.007a1.841 1.841 0 0 0 1.972 1.926 1.953 1.953 0 0 0 1.88-1.192l2.063.917a4.244 4.244 0 0 1 -3.989 2.293c-2.843 0-4.586-1.651-4.586-4.448 0-2.843 1.7-4.631 4.4-4.631s4.265 1.559 4.265 4.356v.78zm-2.66-1.651c0-1.238-.55-1.88-1.6-1.88s-1.7.734-1.7 1.972h3.347v-.092z" transform="translate(-133.399 -33.286)"/><path d="m242.2 33.718h1.513v-2.063l2.751-1.055v3.164h2.063v1.836h-2.063v3.347c0 .871.413 1.33 1.284 1.33a3.636 3.636 0 0 0 .78-.092v2.2a6.8 6.8 0 0 1 -1.559.183c-2.293 0-3.256-1.055-3.256-2.935v-4.033h-1.513z" transform="translate(-144.39 -29.82)"/><path d="m259.4 29.1h2.889v2.522h-2.889zm.046 3.806h2.8v8.667h-2.8z" transform="translate(-153.703 -29.008)"/><path d="m270.7 37.129h2.66v1.651a2.958 2.958 0 0 1 2.889-1.88c1.88 0 2.843 1.192 2.843 3.485v5.365h-2.752v-4.95c0-1.192-.413-1.788-1.284-1.788-.963 0-1.513.734-1.513 2.063v4.675h-2.8v-8.621z" transform="translate(-159.822 -33.232)"/><path d="m300.475 36.043a1.79 1.79 0 0 0 -1.146.321 2.521 2.521 0 0 1 1.009 2.063c0 1.788-1.513 2.935-3.989 2.935a7.05 7.05 0 0 1 -1.788-.229.564.564 0 0 0 -.229.459c0 .413.367.734 1.192.734h2.43c2.109 0 3.21.871 3.21 2.522 0 1.972-1.742 3.164-5 3.164-2.889 0-4.265-.871-4.265-2.063 0-.688.5-1.238 1.513-1.559a1.7 1.7 0 0 1 -1.192-1.651 2.067 2.067 0 0 1 1.559-1.972 2.585 2.585 0 0 1 -1.33-2.339c0-1.743 1.513-2.889 3.944-2.889a5.484 5.484 0 0 1 2.018.321 2.339 2.339 0 0 1 2.522-1.559h.367v1.834a2.68 2.68 0 0 0 -.825-.092zm-5.5 8.529a3.027 3.027 0 0 1 -.642-.046 1.148 1.148 0 0 0 -.367.825c0 .78.871 1.1 2.339 1.1 1.788 0 2.568-.413 2.568-1.009 0-.55-.367-.825-1.192-.825zm2.8-6.19a1.336 1.336 0 1 0 -2.66 0 1.381 1.381 0 0 0 1.33 1.513c.774.045 1.325-.595 1.325-1.514z" transform="translate(-171.3 -31.824)"/><path d="m28.9 41.44a4.2 4.2 0 0 1 4.494-4.54 4.2 4.2 0 0 1 4.494 4.54 4.2 4.2 0 0 1 -4.494 4.54 4.2 4.2 0 0 1 -4.494-4.54zm6.236 0c0-1.788-.642-2.614-1.743-2.614-1.055 0-1.7.825-1.7 2.614s.642 2.614 1.7 2.614c1.101-.001 1.743-.826 1.743-2.614z" transform="translate(-28.9 -33.232)"/><path d="m52.1 37.129h2.66v1.651a2.958 2.958 0 0 1 2.889-1.88c1.88 0 2.843 1.192 2.843 3.485v5.365h-2.752v-4.95c0-1.192-.413-1.788-1.284-1.788-.963 0-1.513.734-1.513 2.063v4.675h-2.8v-8.621z" transform="translate(-41.462 -33.232)"/><path d="m82.313 42.136h-6.053a1.841 1.841 0 0 0 1.972 1.926 1.953 1.953 0 0 0 1.88-1.192l2.063.917a4.244 4.244 0 0 1 -3.989 2.293c-2.843 0-4.586-1.651-4.586-4.448 0-2.844 1.7-4.632 4.4-4.632s4.265 1.559 4.265 4.356v.78zm-2.705-1.651c0-1.238-.55-1.88-1.6-1.88s-1.7.734-1.7 1.972h3.347v-.092z" transform="translate(-53.103 -33.286)"/><path d="m101.714 41.481h-2.338l-.6 1.651h-.776l2.155-5.732h.734l2.155 5.732h-.78zm-.229-.642-.78-2.247-.138-.413a2.132 2.132 0 0 1 -.138.413l-.78 2.247z" transform="translate(-66.314 -33.502)"/><path d="m111.8 37.4h1.1l1.513 4.4a3.2 3.2 0 0 1 .138.55 3.2 3.2 0 0 1 .138-.55l1.513-4.4h1.1v5.732h-.688v-4.4a2.423 2.423 0 0 1 .046-.6h-.046a2.333 2.333 0 0 1 -.183.642l-1.513 4.356h-.734l-1.513-4.356c-.092-.183-.138-.55-.183-.642h-.046a2.422 2.422 0 0 1 .046.6v4.4h-.688z" transform="translate(-73.786 -33.502)"/></g></svg>