<svg width="18" height="18" xmlns="http://www.w3.org/2000/svg">
 <g>
  <title>Layer 1</title>
  <circle cx="9" cy="9" fill="#3cff4b" r="9" id="svg_1"/>
  <path transform="rotate(143.227 9.98 10.05)" id="svg_11" d="m8.91271,8.93696l2.13151,0.01693l0.00306,2.20915l-2.13457,-2.22608z" stroke-linecap="null" stroke-linejoin="null" stroke-dasharray="null" stroke-width="5" fill="#3cff4b"/>
  <path id="svg_12" d="m8.10272,8.87696l2.13151,0.01693l0.00306,2.20915l-2.13457,-2.22608z" stroke-linecap="null" stroke-linejoin="null" stroke-dasharray="null" stroke-width="5" fill="#3cff4b"/>
  <g stroke="#282828" stroke-width="2" id="svg_2">
   <path d="m4.48602,9.05099l4.51501,4.61499l4.51501,-4.61499" fill="#f8f6f5" id="svg_3"/>
   <path d="m9,4l0,9" fill="none" id="svg_4"/>
  </g>
  <path id="svg_10" d="m5.87271,9.02696l2.13151,0.01693l0.00306,2.20915l-2.13457,-2.22608z" stroke-linecap="null" stroke-linejoin="null" stroke-dasharray="null" stroke-width="5" fill="#3cff4b"/>
  <path transform="rotate(-90.2046 11.1 10.1)" id="svg_13" d="m10.03271,8.98696l2.13151,0.01693l0.00306,2.20915l-2.13457,-2.22608z" stroke-linecap="null" stroke-linejoin="null" stroke-dasharray="null" stroke-width="5" fill="#3cff4b"/>
  <path id="svg_8" d="m5.8685,9.01575l2.13151,0.01693l0.00306,2.20915l-2.13457,-2.22608z" stroke-linecap="null" stroke-linejoin="null" stroke-dasharray="null" stroke-width="5" fill="#3cff4b"/>
 </g>
</svg>